HIERARCHY
ROOT Hips
{
	OFFSET 0.00000 0.00000 0.00000
	CHANNELS 6 Xposition Yposition Zposition Zrotation Yrotation Xrotation 
	JOINT LHipJoint
	{
		OFFSET 0 0 0
		CHANNELS 3 Zrotation Yrotation Xrotation
		JOINT LeftUpLeg
		{
			OFFSET 1.41496 -1.84582 0.78394
			CHANNELS 3 Zrotation Yrotation Xrotation
			JOINT LeftLeg
			{
				OFFSET 2.58040 -7.08960 0.00000
				CHANNELS 3 Zrotation Yrotation Xrotation
				JOINT LeftFoot
				{
					OFFSET 2.64719 -7.27309 0.00000
					CHANNELS 3 Zrotation Yrotation Xrotation
					JOINT LeftToeBase
					{
						OFFSET 0.20718 -0.56921 2.20259
						CHANNELS 3 Zrotation Yrotation Xrotation
						End Site
						{
							OFFSET 0.00000 -0.00000 1.14243
						}
					}
				}
			}
		}
	}
	JOINT RHipJoint
	{
		OFFSET 0 0 0
		CHANNELS 3 Zrotation Yrotation Xrotation
		JOINT RightUpLeg
		{
			OFFSET -1.40551 -1.84582 0.78394
			CHANNELS 3 Zrotation Yrotation Xrotation
			JOINT RightLeg
			{
				OFFSET -2.56572 -7.04926 0.00000
				CHANNELS 3 Zrotation Yrotation Xrotation
				JOINT RightFoot
				{
					OFFSET -2.57974 -7.08778 0.00000
					CHANNELS 3 Zrotation Yrotation Xrotation
					JOINT RightToeBase
					{
						OFFSET -0.26704 -0.73369 2.20815
						CHANNELS 3 Zrotation Yrotation Xrotation
						End Site
						{
							OFFSET -0.00000 -0.00000 1.16246
						}
					}
				}
			}
		}
	}
	JOINT LowerBack
	{
		OFFSET 0 0 0
		CHANNELS 3 Zrotation Yrotation Xrotation
		JOINT Spine
		{
			OFFSET -0.04690 2.05196 -0.07017
			CHANNELS 3 Zrotation Yrotation Xrotation
			JOINT Spine1
			{
				OFFSET 0.04085 2.05260 0.00800
				CHANNELS 3 Zrotation Yrotation Xrotation
				JOINT Neck
				{
					OFFSET 0 0 0
					CHANNELS 3 Zrotation Yrotation Xrotation
					JOINT Neck1
					{
						OFFSET -0.03582 1.80995 0.19301
						CHANNELS 3 Zrotation Yrotation Xrotation
						JOINT Head
						{
							OFFSET 0.00952 1.80195 -0.36389
							CHANNELS 3 Zrotation Yrotation Xrotation
							End Site
							{
								OFFSET 0.00392 1.85062 -0.14494
							}
						}
					}
				}
				JOINT LeftShoulder
				{
					OFFSET 0 0 0
					CHANNELS 3 Zrotation Yrotation Xrotation
					JOINT LeftArm
					{
						OFFSET 3.55224 1.39726 -0.13667
						CHANNELS 3 Zrotation Yrotation Xrotation
						JOINT LeftForeArm
						{
							OFFSET 5.14507 -0.00000 -0.00000
							CHANNELS 3 Zrotation Yrotation Xrotation
							JOINT LeftHand
							{
								OFFSET 3.50646 -0.00000 0.00000
								CHANNELS 3 Zrotation Yrotation Xrotation
								JOINT LeftFingerBase
								{
									OFFSET 0 0 0
									CHANNELS 3 Zrotation Yrotation Xrotation
									JOINT LeftHandIndex1
									{
										OFFSET 0.62997 -0.00000 0.00000
										CHANNELS 3 Zrotation Yrotation Xrotation
										End Site
										{
											OFFSET 0.50790 -0.00000 0.00000
										}
									}
								}
								JOINT LThumb
								{
									OFFSET 0 0 0
									CHANNELS 3 Zrotation Yrotation Xrotation
									End Site
									{
										OFFSET 0.51565 -0.00000 0.51565
									}
								}
							}
						}
					}
				}
				JOINT RightShoulder
				{
					OFFSET 0 0 0
					CHANNELS 3 Zrotation Yrotation Xrotation
					JOINT RightArm
					{
						OFFSET -3.06467 1.61290 -0.28813
						CHANNELS 3 Zrotation Yrotation Xrotation
						JOINT RightForeArm
						{
							OFFSET -5.23200 -0.00000 -0.00000
							CHANNELS 3 Zrotation Yrotation Xrotation
							JOINT RightHand
							{
								OFFSET -3.65641 -0.00000 0.00000
								CHANNELS 3 Zrotation Yrotation Xrotation
								JOINT RightFingerBase
								{
									OFFSET 0 0 0
									CHANNELS 3 Zrotation Yrotation Xrotation
									JOINT RightHandIndex1
									{
										OFFSET -0.65681 -0.00000 0.00000
										CHANNELS 3 Zrotation Yrotation Xrotation
										End Site
										{
											OFFSET -0.52953 -0.00000 0.00000
										}
									}
								}
								JOINT RThumb
								{
									OFFSET 0 0 0
									CHANNELS 3 Zrotation Yrotation Xrotation
									End Site
									{
										OFFSET -0.53762 -0.00000 0.53762
									}
								}
							}
						}
					}
				}
			}
		}
	}
}
MOTION
Frames: 13
Frame Time: .0083333
6.0528 15.4376 43.8552 0 0 0 0 0 0 -21 0 0 0 0 0 0 0 0 0 0 0 0 0 0 21 0 0 0 0 0 0 0 0 0 0 0 0 0 0 0 0 0 0 0 0 0 0 -16 0 0 21 0 0 11 0 0 0 -8 0 0 0 0 0 0 0 0 0 0 0 0 0 0 0 0 0 0 0 0 8 0 0 0 0 0 0 0 0 0 0 0 0 0 0 0 0 0
6.0528 15.4376 43.8552 179.1230 -11.3962 -151.8630 0.0000 0.0000 0.0000 -6.6729 -16.7367 -70.3171 11.4284 18.1384 64.1650 1.0999 -12.3222 -19.3924 0.0406 1.3002 3.5751 0.0000 0.0000 0.0000 23.3266 -2.8174 -10.8296 -5.9135 -14.3440 44.6336 -0.1467 -10.9289 9.7294 -0.9815 6.3064 -17.6760 0.8320 1.4583 19.4000 -0.6434 1.8982 0.1432 -1.7044 0.7676 -10.7060 -5.4276 -5.0419 -17.8206 4.6323 -6.9132 -7.7433 1.9899 -3.7988 0.8705 0.0000 0.0000 0.0000 -75.2553 23.2125 42.6443 84.5333 -59.8868 -55.2675 -0.0000 0.0000 -6.0874 23.1717 -7.2129 -3.0761 -7.1250 0.0000 -0.0000 -2.6442 22.1444 1.4540 0.0000 0.0000 0.0000 79.6860 -5.0855 43.9503 -79.7327 59.5979 -51.1203 0.0000 0.0000 2.2132 -22.3298 -9.4298 3.8499 7.1250 -0.0000 -0.0000 4.0656 -40.1264 0.4894
6.0165 15.4423 43.5617 178.3810 -11.8286 -151.9930 0.0000 0.0000 0.0000 -7.8408 -16.8827 -68.8695 11.5123 18.1768 64.4343 1.1740 -13.0844 -20.1247 0.0589 1.5654 4.3061 0.0000 0.0000 0.0000 22.6111 -2.5420 -13.3565 -7.2753 -15.5594 49.9082 0.1750 -11.4147 5.1099 -2.1630 9.1977 -26.4157 0.3106 1.2503 20.0607 -0.6806 1.4787 0.2997 -1.3431 0.5849 -10.9284 -5.3510 -4.9925 -17.8952 4.5853 -6.8912 -7.9563 1.9638 -3.8059 0.8039 0.0000 -0.0000 0.0000 -75.7000 21.7195 42.5123 82.5755 -59.7907 -53.5747 -0.0000 0.0000 -6.6008 23.7509 -7.1506 -3.1352 -7.1250 0.0000 -0.0000 -2.2194 22.1774 1.2184 0.0000 -0.0000 0.0000 79.9415 -5.6200 43.3033 -78.0374 59.4523 -49.6591 0.0000 0.0000 1.0268 -21.6452 -10.4693 4.1244 7.1250 -0.0000 -0.0000 4.8058 -41.1766 0.4544
5.9823 15.4423 43.2751 177.5250 -11.9713 -151.9070 0.0000 0.0000 0.0000 -9.0957 -16.9993 -67.5544 11.5377 18.1883 64.5157 1.2759 -13.4084 -20.9390 0.0721 1.7328 4.7678 0.0000 0.0000 0.0000 21.5489 -2.0128 -16.1772 -8.7077 -16.6159 55.0736 0.2694 -9.9699 0.5564 -2.3174 9.4980 -27.3660 -0.5042 1.1279 20.5903 -0.7544 1.0977 0.3771 -0.8576 0.4388 -11.1625 -5.3119 -4.9119 -17.9892 4.5582 -6.8161 -8.1149 1.9537 -3.7826 0.7590 -0.0000 -0.0000 0.0000 -76.2301 20.1655 42.3515 80.6062 -59.6639 -51.8739 -0.0000 0.0000 -7.0427 24.2061 -7.2940 -3.2666 -7.1250 0.0000 -0.0000 -1.8906 21.9929 1.0456 -0.0000 -0.0000 0.0000 80.4701 -6.5217 42.5357 -76.4983 59.2999 -48.3346 0.0000 0.0000 0.5139 -23.4408 -10.0731 4.3368 7.1250 -0.0000 -0.0000 3.1689 -40.9177 0.3194
5.9468 15.4511 42.9781 176.4630 -12.3347 -152.0630 0.0000 0.0000 0.0000 -10.5610 -17.3173 -65.7317 11.5459 18.1920 64.5419 1.3883 -13.7510 -21.8030 0.0886 1.9202 5.2852 0.0000 0.0000 0.0000 20.3486 -1.9424 -18.7519 -10.1191 -17.4763 59.8856 0.3293 -10.2547 -1.9383 -2.4688 9.7809 -28.2703 -1.2544 0.9042 21.2399 -0.8628 0.5660 0.6299 -0.3936 0.2118 -11.2530 -5.2060 -4.8265 -18.0944 4.5320 -6.7606 -8.3773 1.9320 -3.7780 0.6792 0.0000 0.0000 0.0000 -76.7242 18.3559 42.2304 78.5567 -59.4994 -50.1064 -0.0000 0.0000 -7.3546 24.7693 -7.6346 -3.5079 -7.1250 0.0000 -0.0000 -1.4907 21.5832 0.8381 0.0000 0.0000 0.0000 81.1191 -7.2932 41.6799 -74.5303 59.0762 -46.6444 0.0000 0.0000 0.4490 -23.8075 -10.0761 4.4141 7.1250 -0.0000 -0.0000 2.8454 -40.9548 0.2841
5.9014 15.4744 42.6838 175.7510 -12.3359 -151.8820 0.0000 0.0000 0.0000 -11.6647 -17.4423 -64.3208 11.5280 18.1839 64.4847 1.5491 -13.8857 -22.9174 0.0674 1.6746 4.6072 0.0000 0.0000 0.0000 19.1292 -1.1378 -22.2801 -11.5555 -18.1964 64.5728 0.3765 -10.8024 -3.7589 -2.0208 8.9092 -25.5118 -1.7386 0.7401 21.5374 -0.9678 0.1982 0.6815 -0.1222 0.0572 -11.3620 -5.0153 -4.6788 -18.1822 4.4439 -6.6314 -8.5600 1.8795 -3.7351 0.6143 -0.0000 0.0000 0.0000 -77.2698 16.5828 42.2802 77.1529 -59.3671 -48.8978 -0.0000 0.0000 -7.1917 25.2508 -8.1167 -3.8098 -7.1250 0.0000 -0.0000 -1.1593 21.0196 0.6665 -0.0000 0.0000 0.0000 82.0774 -8.3735 40.4483 -71.8694 58.7208 -44.3659 0.0000 0.0000 0.9169 -23.9307 -10.2285 4.5058 7.1250 -0.0000 -0.0000 2.7543 -41.1317 0.2630
5.8598 15.4707 42.3940 175.0110 -12.5288 -151.8280 0.0000 0.0000 0.0000 -12.7353 -17.6089 -62.8594 11.5314 18.1855 64.4956 1.6871 -14.1026 -23.8596 0.0644 1.6370 4.5034 0.0000 0.0000 0.0000 17.9724 -0.7504 -25.3303 -12.9623 -18.7685 69.0083 0.3732 -10.9508 -6.2520 -1.9528 8.7671 -25.0695 -2.2244 0.5471 21.9621 -1.0334 -0.2171 0.7939 0.2122 -0.1208 -11.4665 -4.8588 -4.5462 -18.2584 4.3724 -6.5212 -8.7878 1.8381 -3.7035 0.5357 0.0000 -0.0000 0.0000 -77.7677 14.8467 42.2940 75.6611 -59.2087 -47.6151 -0.0000 0.0000 -7.2649 25.7108 -8.4502 -4.0473 -7.1250 0.0000 -0.0000 -0.8416 20.6171 0.4914 0.0000 -0.0000 0.0000 82.8317 -9.3106 39.3054 -69.6364 58.3737 -42.4609 0.0000 0.0000 1.0833 -24.3949 -10.2758 4.6252 7.1250 -0.0000 -0.0000 2.3483 -41.2270 0.2187
5.8169 15.4627 42.1041 174.3530 -12.7191 -151.7570 0.0000 0.0000 0.0000 -13.6859 -17.7691 -61.4336 11.5439 18.1911 64.5356 1.8400 -14.2640 -24.8536 0.0590 1.5671 4.3108 0.0000 0.0000 0.0000 16.8205 -0.3475 -28.5251 -14.3325 -19.2118 73.2172 0.3439 -11.1174 -8.4868 -1.7923 8.4192 -23.9949 -2.6180 0.3377 22.3249 -1.0779 -0.6276 0.8931 0.5193 -0.2994 -11.5451 -4.6757 -4.3875 -18.3144 4.2961 -6.3845 -9.0345 1.7931 -3.6607 0.4456 0.0000 -0.0000 0.0000 -78.2675 13.0902 42.3500 74.3725 -59.0568 -46.5091 -0.0000 0.0000 -7.2614 26.1368 -8.8092 -4.2975 -7.1250 0.0000 -0.0000 -0.5526 20.1858 0.3280 0.0000 -0.0000 0.0000 83.6220 -10.2977 38.0648 -67.2888 57.9584 -40.4663 0.0000 0.0000 1.3601 -24.8905 -10.2938 4.7397 7.1250 -0.0000 -0.0000 1.9103 -41.2942 0.1747
5.7731 15.4499 41.8134 173.8000 -12.9082 -151.6790 0.0000 0.0000 0.0000 -14.4945 -17.9052 -60.0556 11.5763 18.2057 64.6392 2.0090 -14.3928 -25.9079 0.0524 1.4773 4.0631 0.0000 0.0000 0.0000 15.7047 0.0783 -31.8478 -15.6345 -19.5368 77.1408 0.2981 -11.3173 -10.5132 -1.6417 8.0762 -22.9457 -2.9102 0.1117 22.6276 -1.0960 -1.0280 0.9768 0.7970 -0.4764 -11.6029 -4.4698 -4.2025 -18.3486 4.2259 -6.2196 -9.2976 1.7488 -3.6055 0.3455 0.0000 -0.0000 0.0000 -78.7640 11.3245 42.4415 73.2906 -58.9183 -45.5818 -0.0000 0.0000 -7.2002 26.5287 -9.1746 -4.5509 -7.1250 0.0000 -0.0000 -0.2914 19.7472 0.1758 0.0000 -0.0000 0.0000 84.4147 -11.3210 36.7488 -64.8342 57.4662 -38.3911 0.0000 0.0000 1.6828 -25.3292 -10.3587 4.8646 7.1250 -0.0000 -0.0000 1.5270 -41.4078 0.1353
5.7291 15.4315 41.5216 173.3520 -13.0887 -151.5950 0.0000 0.0000 0.0000 -15.1715 -18.0019 -58.7164 11.6185 18.2247 64.7742 2.1900 -14.4952 -26.9946 0.0455 1.3768 3.7863 0.0000 0.0000 0.0000 14.6278 0.5360 -35.2913 -16.8507 -19.7605 80.7565 0.2298 -11.4794 -12.4708 -1.5079 7.7556 -21.9742 -3.1252 -0.1247 22.8671 -1.0850 -1.4143 1.0460 1.0598 -0.6485 -11.6391 -4.2583 -3.9965 -18.3704 4.1785 -6.0289 -9.5675 1.7130 -3.5381 0.2418 -0.0000 -0.0000 0.0000 -79.2585 9.5493 42.5590 72.3958 -58.7960 -44.8160 -0.0000 0.0000 -7.1035 26.8861 -9.5304 -4.7986 -7.1250 0.0000 -0.0000 -0.0573 19.3195 0.0351 -0.0000 -0.0000 0.0000 85.1798 -12.3716 35.3800 -62.2900 56.8899 -36.2530 0.0000 0.0000 1.9697 -25.7674 -10.4396 4.9988 7.1250 -0.0000 -0.0000 1.1448 -41.5397 0.0977
5.6856 15.4078 41.2277 172.9890 -13.2658 -151.5330 0.0000 0.0000 0.0000 -15.7470 -18.0541 -57.3748 11.6688 18.2471 64.9351 2.3824 -14.5780 -28.1095 0.0391 1.2759 3.5083 0.0000 0.0000 0.0000 13.5833 1.0062 -38.8110 -17.9606 -19.9000 84.0276 0.1398 -11.6042 -14.3757 -1.4239 7.5459 -21.3431 -3.2886 -0.3701 23.0627 -1.0454 -1.7921 1.1096 1.3231 -0.8179 -11.6542 -4.0546 -3.7731 -18.3690 4.1666 -5.8142 -9.8477 1.6922 -3.4589 0.1326 0.0000 -0.0000 0.0000 -79.7492 7.7641 42.6957 71.6695 -58.6915 -44.1950 -0.0000 0.0000 -6.9942 27.2192 -9.8761 -5.0416 -7.1250 0.0000 -0.0000 0.1575 18.9026 -0.0980 0.0000 -0.0000 0.0000 85.8893 -13.4348 33.9863 -59.6517 56.2164 -34.0514 0.0000 0.0000 2.1598 -26.1815 -10.5274 5.1330 7.1250 -0.0000 -0.0000 0.7834 -41.6779 0.0642
5.6430 15.3785 40.9315 172.6920 -13.4200 -151.4940 0.0000 0.0000 0.0000 -16.2541 -18.0438 -56.0239 11.7251 18.2720 65.1149 2.5839 -14.6500 -29.2393 0.0330 1.1728 3.2245 0.0000 0.0000 0.0000 12.5456 1.4981 -42.3940 -18.9509 -19.9736 86.9314 0.0316 -11.6916 -16.1924 -1.3777 7.4275 -20.9882 -3.4344 -0.6126 23.2147 -0.9846 -2.1557 1.1696 1.5955 -0.9807 -11.6462 -3.8657 -3.5404 -18.3612 4.1908 -5.5825 -10.1154 1.6864 -3.3701 0.0286 -0.0000 0.0000 0.0000 -80.2342 5.9703 42.8495 71.0980 -58.6060 -43.7070 -0.0000 0.0000 -6.8763 27.5550 -10.2028 -5.2806 -7.1250 0.0000 -0.0000 0.3732 18.5043 -0.2355 -0.0000 0.0000 0.0000 86.5287 -14.5004 32.5771 -56.9236 55.4328 -31.7942 0.0000 0.0000 2.2128 -26.5379 -10.6101 5.2537 7.1250 -0.0000 -0.0000 0.4722 -41.8054 0.0372
5.6018 15.3447 40.6319 172.4290 -13.5591 -151.5010 0.0000 0.0000 0.0000 -16.7373 -17.9677 -54.6175 11.7819 18.2969 65.2959 2.7933 -14.7167 -30.3779 0.0268 1.0561 2.9033 0.0000 0.0000 0.0000 11.4946 1.9901 -45.9885 -19.8078 -19.9991 89.4380 -0.0915 -11.7408 -17.9074 -1.3736 7.4170 -20.9569 -3.5896 -0.8525 23.3507 -0.9064 -2.5152 1.2311 1.8914 -1.1408 -11.6234 -3.6976 -3.3044 -18.3543 4.2473 -5.3385 -10.3533 1.6949 -3.2732 -0.0633 -0.0000 -0.0000 0.0000 -80.7198 4.1828 43.0132 70.6994 -58.5446 -43.3669 -0.0000 0.0000 -6.7418 27.8650 -10.5095 -5.5081 -7.1250 0.0000 -0.0000 0.5699 18.1289 -0.3643 -0.0000 -0.0000 0.0000 87.0795 -15.5602 31.1694 -54.1205 54.5280 -29.4984 0.0000 0.0000 2.1011 -26.8165 -10.6757 5.3498 7.1250 -0.0000 -0.0000 0.2282 -41.9068 0.0174
